<?xml version="1.0" encoding="utf-8"?>
<!-- Generator: Adobe Illustrator 19.0.0, SVG Export Plug-In . SVG Version: 6.00 Build 0)  -->
<svg version="1.1" id="Layer_1" xmlns="http://www.w3.org/2000/svg" xmlns:xlink="http://www.w3.org/1999/xlink" x="0px" y="0px"
	 viewBox="0 0 339 455.2" style="enable-background:new 0 0 339 455.2;" xml:space="preserve">
<style type="text/css">
	.st0{fill:#003648;}
	.st1{fill:#03475E;}
	.st2{fill:#022634;}
	.st3{fill:#082029;}
	.st4{fill:#002E3E;}
	.st5{fill:#071920;}
	.st6{fill:#0A1417;}
	.st7{fill:#070C0E;}
	.st8{fill:#010101;}
	.st9{fill:#013F53;}
	.st10{fill:#250D0D;}
	.st11{fill:#120A0B;}
	.st12{fill:#0A0606;}
	.st13{fill:#1F0E0E;}
	.st14{fill:#2B1010;}
	.st15{fill:#190D0D;}
	.st16{fill:#371313;}
	.st17{fill:#3E1313;}
	.st18{fill:#561413;}
	.st19{fill:#4D1515;}
	.st20{fill:#5E1413;}
	.st21{fill:#661415;}
	.st22{fill:#831A1A;}
	.st23{fill:#F4774E;}
	.st24{fill:#301212;}
	.st25{fill:#7B1818;}
	.st26{fill:#8B1B1B;}
	.st27{fill:#DF5A3C;}
	.st28{fill:#6C1615;}
	.st29{fill:#911C1D;}
	.st30{fill:#741716;}
	.st31{fill:#F47E53;}
	.st32{fill:#B32625;}
	.st33{fill:#461313;}
	.st34{fill:#035E7C;}
	.st35{fill:#054E69;}
	.st36{fill:#C93F30;}
	.st37{fill:#A81F23;}
</style>
<rect y="449" class="st0" width="67.8" height="6.1"/>
<rect y="442.9" class="st1" width="67.8" height="6.2"/>
<rect y="436.7" class="st2" width="67.8" height="6.2"/>
<rect y="430.6" class="st3" width="67.8" height="6.2"/>
<rect y="424.4" class="st0" width="67.8" height="6.2"/>
<rect y="418.3" class="st2" width="67.8" height="6.2"/>
<rect y="412.1" class="st4" width="67.8" height="6.2"/>
<rect y="406" class="st2" width="67.8" height="6.2"/>
<rect y="399.8" class="st2" width="67.8" height="6.2"/>
<rect y="393.6" class="st5" width="67.8" height="6.2"/>
<rect y="387.5" class="st4" width="67.8" height="6.2"/>
<rect y="381.3" class="st2" width="67.8" height="6.1"/>
<rect y="375.2" class="st2" width="67.8" height="6.1"/>
<rect y="369" class="st4" width="67.8" height="6.1"/>
<rect y="362.9" class="st0" width="67.8" height="6.1"/>
<rect y="356.7" class="st3" width="67.8" height="6.1"/>
<rect y="350.6" class="st5" width="67.8" height="6.1"/>
<rect y="344.4" class="st6" width="67.8" height="6.1"/>
<rect y="338.3" class="st5" width="67.8" height="6.1"/>
<rect y="332.1" class="st6" width="67.8" height="6.1"/>
<rect y="326" class="st3" width="67.8" height="6.1"/>
<rect y="319.8" class="st3" width="67.8" height="6.1"/>
<rect y="313.7" class="st3" width="67.8" height="6.1"/>
<rect y="307.5" class="st5" width="67.8" height="6.1"/>
<rect y="301.4" class="st7" width="67.8" height="6.1"/>
<rect y="295.2" class="st7" width="67.8" height="6.1"/>
<rect y="289.1" class="st8" width="67.8" height="6.1"/>
<rect y="282.9" class="st7" width="67.8" height="6.1"/>
<rect y="276.8" class="st7" width="67.8" height="6.1"/>
<rect y="270.6" class="st5" width="67.8" height="6.1"/>
<rect y="264.5" class="st7" width="67.8" height="6.1"/>
<rect y="258.3" class="st9" width="67.8" height="6.1"/>
<rect y="252.2" class="st9" width="67.8" height="6.1"/>
<rect y="246" class="st4" width="67.8" height="6.1"/>
<rect y="239.9" class="st2" width="67.8" height="6.1"/>
<rect y="233.7" class="st2" width="67.8" height="6.1"/>
<rect y="227.6" class="st0" width="67.8" height="6.1"/>
<rect y="221.4" class="st10" width="67.8" height="6.1"/>
<rect y="215.3" class="st5" width="67.8" height="6.1"/>
<rect y="209.1" class="st5" width="67.8" height="6.1"/>
<rect y="203" class="st5" width="67.8" height="6.1"/>
<rect y="196.8" class="st3" width="67.8" height="6.1"/>
<rect y="190.7" class="st5" width="67.8" height="6.1"/>
<rect y="184.5" class="st2" width="67.8" height="6.1"/>
<rect y="178.4" class="st5" width="67.8" height="6.1"/>
<rect y="172.2" class="st6" width="67.8" height="6.1"/>
<rect y="166.1" class="st5" width="67.8" height="6.1"/>
<rect y="159.9" class="st6" width="67.8" height="6.1"/>
<rect y="153.8" class="st8" width="67.8" height="6.1"/>
<rect y="147.6" class="st8" width="67.8" height="6.1"/>
<rect y="141.5" class="st11" width="67.8" height="6.1"/>
<rect y="135.3" class="st8" width="67.8" height="6.1"/>
<rect y="129.2" class="st8" width="67.8" height="6.1"/>
<rect y="123" class="st12" width="67.8" height="6.1"/>
<rect y="116.9" class="st11" width="67.8" height="6.1"/>
<rect y="110.7" class="st13" width="67.8" height="6.1"/>
<rect y="104.6" class="st7" width="67.8" height="6.1"/>
<rect y="98.4" class="st11" width="67.8" height="6.1"/>
<rect y="92.3" class="st14" width="67.8" height="6.1"/>
<rect y="86.1" class="st10" width="67.8" height="6.1"/>
<rect y="80" class="st15" width="67.8" height="6.1"/>
<rect y="73.8" class="st11" width="67.8" height="6.1"/>
<rect y="67.7" class="st15" width="67.8" height="6.1"/>
<rect y="61.5" class="st13" width="67.8" height="6.1"/>
<rect y="55.4" class="st16" width="67.8" height="6.1"/>
<rect y="49.2" class="st17" width="67.8" height="6.1"/>
<rect y="43.1" class="st18" width="67.8" height="6.1"/>
<rect y="36.9" class="st19" width="67.8" height="6.1"/>
<rect y="30.8" class="st20" width="67.8" height="6.1"/>
<rect y="24.6" class="st21" width="67.8" height="6.1"/>
<rect y="18.5" class="st20" width="67.8" height="6.1"/>
<rect y="12.3" class="st20" width="67.8" height="6.1"/>
<rect y="6.2" class="st22" width="67.8" height="6.1"/>
<rect class="st23" width="67.8" height="6.2"/>
<rect x="67.8" y="449" class="st0" width="67.8" height="6.1"/>
<rect x="67.8" y="442.9" class="st4" width="67.8" height="6.2"/>
<rect x="67.8" y="436.7" class="st4" width="67.8" height="6.2"/>
<rect x="67.8" y="430.6" class="st4" width="67.8" height="6.2"/>
<rect x="67.8" y="424.4" class="st2" width="67.8" height="6.2"/>
<rect x="67.8" y="418.3" class="st2" width="67.8" height="6.2"/>
<rect x="67.8" y="412.1" class="st9" width="67.8" height="6.2"/>
<rect x="67.8" y="406" class="st3" width="67.8" height="6.2"/>
<rect x="67.8" y="399.8" class="st2" width="67.8" height="6.2"/>
<rect x="67.8" y="393.6" class="st3" width="67.8" height="6.2"/>
<rect x="67.8" y="387.5" class="st4" width="67.8" height="6.2"/>
<rect x="67.8" y="381.3" class="st3" width="67.8" height="6.1"/>
<rect x="67.8" y="375.2" class="st5" width="67.8" height="6.1"/>
<rect x="67.8" y="369" class="st5" width="67.8" height="6.1"/>
<rect x="67.8" y="362.9" class="st2" width="67.8" height="6.1"/>
<rect x="67.8" y="356.7" class="st2" width="67.8" height="6.1"/>
<rect x="67.8" y="350.6" class="st4" width="67.8" height="6.1"/>
<rect x="67.8" y="344.4" class="st2" width="67.8" height="6.1"/>
<rect x="67.8" y="338.3" class="st4" width="67.8" height="6.1"/>
<rect x="67.8" y="332.1" class="st3" width="67.8" height="6.1"/>
<rect x="67.8" y="326" class="st3" width="67.8" height="6.1"/>
<rect x="67.8" y="319.8" class="st5" width="67.8" height="6.1"/>
<rect x="67.8" y="313.7" class="st3" width="67.8" height="6.1"/>
<rect x="67.8" y="307.5" class="st5" width="67.8" height="6.1"/>
<rect x="67.8" y="301.4" class="st3" width="67.8" height="6.1"/>
<rect x="67.8" y="295.2" class="st3" width="67.8" height="6.1"/>
<rect x="67.8" y="289.1" class="st5" width="67.8" height="6.1"/>
<rect x="67.8" y="282.9" class="st8" width="67.8" height="6.1"/>
<rect x="67.8" y="276.8" class="st8" width="67.8" height="6.1"/>
<rect x="67.8" y="270.6" class="st6" width="67.8" height="6.1"/>
<rect x="67.8" y="264.5" class="st2" width="67.8" height="6.1"/>
<rect x="67.8" y="258.3" class="st9" width="67.8" height="6.1"/>
<rect x="67.8" y="252.2" class="st9" width="67.8" height="6.1"/>
<rect x="67.8" y="246" class="st0" width="67.8" height="6.1"/>
<rect x="67.8" y="239.9" class="st4" width="67.8" height="6.1"/>
<rect x="67.8" y="233.7" class="st4" width="67.8" height="6.1"/>
<rect x="67.8" y="227.6" class="st2" width="67.8" height="6.1"/>
<rect x="67.8" y="221.4" class="st8" width="67.8" height="6.1"/>
<rect x="67.8" y="215.3" class="st5" width="67.8" height="6.1"/>
<rect x="67.8" y="209.1" class="st6" width="67.8" height="6.1"/>
<rect x="67.8" y="203" class="st3" width="67.8" height="6.1"/>
<rect x="67.8" y="196.8" class="st6" width="67.8" height="6.1"/>
<rect x="67.8" y="190.7" class="st7" width="67.8" height="6.1"/>
<rect x="67.8" y="184.5" class="st7" width="67.8" height="6.1"/>
<rect x="67.8" y="178.4" class="st7" width="67.8" height="6.1"/>
<rect x="67.8" y="172.2" class="st3" width="67.8" height="6.1"/>
<rect x="67.8" y="166.1" class="st3" width="67.8" height="6.1"/>
<rect x="67.8" y="159.9" class="st15" width="67.8" height="6.1"/>
<rect x="67.8" y="153.8" class="st7" width="67.8" height="6.1"/>
<rect x="67.8" y="147.6" class="st12" width="67.8" height="6.1"/>
<rect x="67.8" y="141.5" class="st11" width="67.8" height="6.1"/>
<rect x="67.8" y="135.3" class="st12" width="67.8" height="6.1"/>
<rect x="67.8" y="129.2" class="st12" width="67.8" height="6.1"/>
<rect x="67.8" y="123" class="st3" width="67.8" height="6.1"/>
<rect x="67.8" y="116.9" class="st3" width="67.8" height="6.1"/>
<rect x="67.8" y="110.7" class="st6" width="67.8" height="6.1"/>
<rect x="67.8" y="104.6" class="st2" width="67.8" height="6.1"/>
<rect x="67.8" y="98.4" class="st14" width="67.8" height="6.1"/>
<rect x="67.8" y="92.3" class="st14" width="67.8" height="6.1"/>
<rect x="67.8" y="86.1" class="st14" width="67.8" height="6.1"/>
<rect x="67.8" y="80" class="st8" width="67.8" height="6.1"/>
<rect x="67.8" y="73.8" class="st11" width="67.8" height="6.1"/>
<rect x="67.8" y="67.7" class="st24" width="67.8" height="6.1"/>
<rect x="67.8" y="61.5" class="st24" width="67.8" height="6.1"/>
<rect x="67.8" y="55.4" class="st18" width="67.8" height="6.1"/>
<rect x="67.8" y="49.2" class="st19" width="67.8" height="6.1"/>
<rect x="67.8" y="43.1" class="st22" width="67.8" height="6.1"/>
<rect x="67.8" y="36.9" class="st18" width="67.8" height="6.1"/>
<rect x="67.8" y="30.8" class="st21" width="67.8" height="6.1"/>
<rect x="67.8" y="24.6" class="st20" width="67.8" height="6.1"/>
<rect x="67.8" y="18.5" class="st25" width="67.8" height="6.1"/>
<rect x="67.8" y="12.3" class="st26" width="67.8" height="6.1"/>
<rect x="67.8" y="6.2" class="st25" width="67.8" height="6.1"/>
<rect x="67.8" class="st27" width="67.8" height="6.2"/>
<rect x="135.6" y="449" class="st4" width="67.8" height="6.1"/>
<rect x="135.6" y="442.9" class="st3" width="67.8" height="6.2"/>
<rect x="135.6" y="436.7" class="st0" width="67.8" height="6.2"/>
<rect x="135.6" y="430.6" class="st0" width="67.8" height="6.2"/>
<rect x="135.6" y="424.4" class="st6" width="67.8" height="6.2"/>
<rect x="135.6" y="418.3" class="st6" width="67.8" height="6.2"/>
<rect x="135.6" y="412.1" class="st5" width="67.8" height="6.2"/>
<rect x="135.6" y="406" class="st3" width="67.8" height="6.2"/>
<rect x="135.6" y="399.8" class="st5" width="67.8" height="6.2"/>
<rect x="135.6" y="393.6" class="st4" width="67.8" height="6.2"/>
<rect x="135.6" y="387.5" class="st5" width="67.8" height="6.2"/>
<rect x="135.6" y="381.3" class="st7" width="67.8" height="6.1"/>
<rect x="135.6" y="375.2" class="st3" width="67.8" height="6.1"/>
<rect x="135.6" y="369" class="st5" width="67.8" height="6.1"/>
<rect x="135.6" y="362.9" class="st3" width="67.8" height="6.1"/>
<rect x="135.6" y="356.7" class="st6" width="67.8" height="6.1"/>
<rect x="135.6" y="350.6" class="st3" width="67.8" height="6.1"/>
<rect x="135.6" y="344.4" class="st5" width="67.8" height="6.1"/>
<rect x="135.6" y="338.3" class="st2" width="67.8" height="6.1"/>
<rect x="135.6" y="332.1" class="st4" width="67.8" height="6.1"/>
<rect x="135.6" y="326" class="st3" width="67.8" height="6.1"/>
<rect x="135.6" y="319.8" class="st3" width="67.8" height="6.1"/>
<rect x="135.6" y="313.7" class="st4" width="67.8" height="6.1"/>
<rect x="135.6" y="307.5" class="st4" width="67.8" height="6.1"/>
<rect x="135.6" y="301.4" class="st3" width="67.8" height="6.1"/>
<rect x="135.6" y="295.2" class="st2" width="67.8" height="6.1"/>
<rect x="135.6" y="289.1" class="st3" width="67.8" height="6.1"/>
<rect x="135.6" y="282.9" class="st2" width="67.8" height="6.1"/>
<rect x="135.6" y="276.8" class="st6" width="67.8" height="6.1"/>
<rect x="135.6" y="270.6" class="st4" width="67.8" height="6.1"/>
<rect x="135.6" y="264.5" class="st5" width="67.8" height="6.1"/>
<rect x="135.6" y="258.3" class="st9" width="67.8" height="6.1"/>
<rect x="135.6" y="252.2" class="st0" width="67.8" height="6.1"/>
<rect x="135.6" y="246" class="st1" width="67.8" height="6.1"/>
<rect x="135.6" y="239.9" class="st2" width="67.8" height="6.1"/>
<rect x="135.6" y="233.7" class="st3" width="67.8" height="6.1"/>
<rect x="135.6" y="227.6" class="st4" width="67.8" height="6.1"/>
<rect x="135.6" y="221.4" class="st15" width="67.8" height="6.1"/>
<rect x="135.6" y="215.3" class="st8" width="67.8" height="6.1"/>
<rect x="135.6" y="209.1" class="st7" width="67.8" height="6.1"/>
<rect x="135.6" y="203" class="st6" width="67.8" height="6.1"/>
<rect x="135.6" y="196.8" class="st7" width="67.8" height="6.1"/>
<rect x="135.6" y="190.7" class="st7" width="67.8" height="6.1"/>
<rect x="135.6" y="184.5" class="st5" width="67.8" height="6.1"/>
<rect x="135.6" y="178.4" class="st11" width="67.8" height="6.1"/>
<rect x="135.6" y="172.2" class="st15" width="67.8" height="6.1"/>
<rect x="135.6" y="166.1" class="st13" width="67.8" height="6.1"/>
<rect x="135.6" y="159.9" class="st15" width="67.8" height="6.1"/>
<rect x="135.6" y="153.8" class="st7" width="67.8" height="6.1"/>
<rect x="135.6" y="147.6" class="st5" width="67.8" height="6.1"/>
<rect x="135.6" y="141.5" class="st11" width="67.8" height="6.1"/>
<rect x="135.6" y="135.3" class="st11" width="67.8" height="6.1"/>
<rect x="135.6" y="129.2" class="st12" width="67.8" height="6.1"/>
<rect x="135.6" y="123" class="st5" width="67.8" height="6.1"/>
<rect x="135.6" y="116.9" class="st7" width="67.8" height="6.1"/>
<rect x="135.6" y="110.7" class="st2" width="67.8" height="6.1"/>
<rect x="135.6" y="104.6" class="st4" width="67.8" height="6.1"/>
<rect x="135.6" y="98.4" class="st14" width="67.8" height="6.1"/>
<rect x="135.6" y="92.3" class="st15" width="67.8" height="6.1"/>
<rect x="135.6" y="86.1" class="st15" width="67.8" height="6.1"/>
<rect x="135.6" y="80" class="st24" width="67.8" height="6.1"/>
<rect x="135.6" y="73.8" class="st11" width="67.8" height="6.1"/>
<rect x="135.6" y="67.7" class="st10" width="67.8" height="6.1"/>
<rect x="135.6" y="61.5" class="st13" width="67.8" height="6.1"/>
<rect x="135.6" y="55.4" class="st10" width="67.8" height="6.1"/>
<rect x="135.6" y="49.2" class="st11" width="67.8" height="6.1"/>
<rect x="135.6" y="43.1" class="st14" width="67.8" height="6.1"/>
<rect x="135.6" y="36.9" class="st17" width="67.8" height="6.1"/>
<rect x="135.6" y="30.8" class="st16" width="67.8" height="6.1"/>
<rect x="135.6" y="24.6" class="st28" width="67.8" height="6.1"/>
<rect x="135.6" y="18.5" class="st29" width="67.8" height="6.1"/>
<rect x="135.6" y="12.3" class="st19" width="67.8" height="6.1"/>
<rect x="135.6" y="6.2" class="st30" width="67.8" height="6.1"/>
<rect x="135.6" class="st31" width="67.8" height="6.2"/>
<rect x="203.4" y="449" class="st1" width="67.8" height="6.1"/>
<rect x="203.4" y="442.9" class="st0" width="67.8" height="6.2"/>
<rect x="203.4" y="436.7" class="st0" width="67.8" height="6.2"/>
<rect x="203.4" y="430.6" class="st2" width="67.8" height="6.2"/>
<rect x="203.4" y="424.4" class="st2" width="67.8" height="6.2"/>
<rect x="203.4" y="418.3" class="st4" width="67.8" height="6.2"/>
<rect x="203.4" y="412.1" class="st4" width="67.8" height="6.2"/>
<rect x="203.4" y="406" class="st4" width="67.8" height="6.2"/>
<rect x="203.4" y="399.8" class="st3" width="67.8" height="6.2"/>
<rect x="203.4" y="393.6" class="st4" width="67.8" height="6.2"/>
<rect x="203.4" y="387.5" class="st0" width="67.8" height="6.2"/>
<rect x="203.4" y="381.3" class="st4" width="67.8" height="6.1"/>
<rect x="203.4" y="375.2" class="st5" width="67.8" height="6.1"/>
<rect x="203.4" y="369" class="st5" width="67.8" height="6.1"/>
<rect x="203.4" y="362.9" class="st6" width="67.8" height="6.1"/>
<rect x="203.4" y="356.7" class="st5" width="67.8" height="6.1"/>
<rect x="203.4" y="350.6" class="st4" width="67.8" height="6.1"/>
<rect x="203.4" y="344.4" class="st2" width="67.8" height="6.1"/>
<rect x="203.4" y="338.3" class="st2" width="67.8" height="6.1"/>
<rect x="203.4" y="332.1" class="st4" width="67.8" height="6.1"/>
<rect x="203.4" y="326" class="st4" width="67.8" height="6.1"/>
<rect x="203.4" y="319.8" class="st4" width="67.8" height="6.1"/>
<rect x="203.4" y="313.7" class="st2" width="67.8" height="6.1"/>
<rect x="203.4" y="307.5" class="st5" width="67.8" height="6.1"/>
<rect x="203.4" y="301.4" class="st3" width="67.8" height="6.1"/>
<rect x="203.4" y="295.2" class="st5" width="67.8" height="6.1"/>
<rect x="203.4" y="289.1" class="st2" width="67.8" height="6.1"/>
<rect x="203.4" y="282.9" class="st6" width="67.8" height="6.1"/>
<rect x="203.4" y="276.8" class="st5" width="67.8" height="6.1"/>
<rect x="203.4" y="270.6" class="st8" width="67.8" height="6.1"/>
<rect x="203.4" y="264.5" class="st8" width="67.8" height="6.1"/>
<rect x="203.4" y="258.3" class="st9" width="67.8" height="6.1"/>
<rect x="203.4" y="252.2" class="st9" width="67.8" height="6.1"/>
<rect x="203.4" y="246" class="st0" width="67.8" height="6.1"/>
<rect x="203.4" y="239.9" class="st0" width="67.8" height="6.1"/>
<rect x="203.4" y="233.7" class="st2" width="67.8" height="6.1"/>
<rect x="203.4" y="227.6" class="st4" width="67.8" height="6.1"/>
<rect x="203.4" y="221.4" class="st32" width="67.8" height="6.1"/>
<rect x="203.4" y="215.3" class="st7" width="67.8" height="6.1"/>
<rect x="203.4" y="209.1" class="st6" width="67.8" height="6.1"/>
<rect x="203.4" y="203" class="st6" width="67.8" height="6.1"/>
<rect x="203.4" y="196.8" class="st6" width="67.8" height="6.1"/>
<rect x="203.4" y="190.7" class="st3" width="67.8" height="6.1"/>
<rect x="203.4" y="184.5" class="st7" width="67.8" height="6.1"/>
<rect x="203.4" y="178.4" class="st8" width="67.8" height="6.1"/>
<rect x="203.4" y="172.2" class="st7" width="67.8" height="6.1"/>
<rect x="203.4" y="166.1" class="st2" width="67.8" height="6.1"/>
<rect x="203.4" y="159.9" class="st14" width="67.8" height="6.1"/>
<rect x="203.4" y="153.8" class="st11" width="67.8" height="6.1"/>
<rect x="203.4" y="147.6" class="st8" width="67.8" height="6.1"/>
<rect x="203.4" y="141.5" class="st12" width="67.8" height="6.1"/>
<rect x="203.4" y="135.3" class="st15" width="67.8" height="6.1"/>
<rect x="203.4" y="129.2" class="st15" width="67.8" height="6.1"/>
<rect x="203.4" y="123" class="st6" width="67.8" height="6.1"/>
<rect x="203.4" y="116.9" class="st6" width="67.8" height="6.1"/>
<rect x="203.4" y="110.7" class="st7" width="67.8" height="6.1"/>
<rect x="203.4" y="104.6" class="st3" width="67.8" height="6.1"/>
<rect x="203.4" y="98.4" class="st7" width="67.8" height="6.1"/>
<rect x="203.4" y="92.3" class="st15" width="67.8" height="6.1"/>
<rect x="203.4" y="86.1" class="st11" width="67.8" height="6.1"/>
<rect x="203.4" y="80" class="st13" width="67.8" height="6.1"/>
<rect x="203.4" y="73.8" class="st24" width="67.8" height="6.1"/>
<rect x="203.4" y="67.7" class="st13" width="67.8" height="6.1"/>
<rect x="203.4" y="61.5" class="st16" width="67.8" height="6.1"/>
<rect x="203.4" y="55.4" class="st19" width="67.8" height="6.1"/>
<rect x="203.4" y="49.2" class="st33" width="67.8" height="6.1"/>
<rect x="203.4" y="43.1" class="st19" width="67.8" height="6.1"/>
<rect x="203.4" y="36.9" class="st18" width="67.8" height="6.1"/>
<rect x="203.4" y="30.8" class="st21" width="67.8" height="6.1"/>
<rect x="203.4" y="24.6" class="st16" width="67.8" height="6.1"/>
<rect x="203.4" y="18.5" class="st17" width="67.8" height="6.1"/>
<rect x="203.4" y="12.3" class="st20" width="67.8" height="6.1"/>
<rect x="203.4" y="6.2" class="st25" width="67.8" height="6.1"/>
<rect x="203.4" class="st27" width="67.8" height="6.2"/>
<rect x="271.2" y="449" class="st2" width="67.8" height="6.1"/>
<rect x="271.2" y="442.9" class="st4" width="67.8" height="6.2"/>
<rect x="271.2" y="436.7" class="st4" width="67.8" height="6.2"/>
<rect x="271.2" y="430.6" class="st2" width="67.8" height="6.2"/>
<rect x="271.2" y="424.4" class="st4" width="67.8" height="6.2"/>
<rect x="271.2" y="418.3" class="st4" width="67.8" height="6.2"/>
<rect x="271.2" y="412.1" class="st4" width="67.8" height="6.2"/>
<rect x="271.2" y="406" class="st3" width="67.8" height="6.2"/>
<rect x="271.2" y="399.8" class="st3" width="67.8" height="6.2"/>
<rect x="271.2" y="393.6" class="st5" width="67.8" height="6.2"/>
<rect x="271.2" y="387.5" class="st7" width="67.8" height="6.2"/>
<rect x="271.2" y="381.3" class="st5" width="67.8" height="6.1"/>
<rect x="271.2" y="375.2" class="st5" width="67.8" height="6.1"/>
<rect x="271.2" y="369" class="st5" width="67.8" height="6.1"/>
<rect x="271.2" y="362.9" class="st6" width="67.8" height="6.1"/>
<rect x="271.2" y="356.7" class="st8" width="67.8" height="6.1"/>
<rect x="271.2" y="350.6" class="st0" width="67.8" height="6.1"/>
<rect x="271.2" y="344.4" class="st0" width="67.8" height="6.1"/>
<rect x="271.2" y="338.3" class="st9" width="67.8" height="6.1"/>
<rect x="271.2" y="332.1" class="st1" width="67.8" height="6.1"/>
<rect x="271.2" y="326" class="st0" width="67.8" height="6.1"/>
<rect x="271.2" y="319.8" class="st0" width="67.8" height="6.1"/>
<rect x="271.2" y="313.7" class="st4" width="67.8" height="6.1"/>
<rect x="271.2" y="307.5" class="st0" width="67.8" height="6.1"/>
<rect x="271.2" y="301.4" class="st9" width="67.8" height="6.1"/>
<rect x="271.2" y="295.2" class="st5" width="67.8" height="6.1"/>
<rect x="271.2" y="289.1" class="st6" width="67.8" height="6.1"/>
<rect x="271.2" y="282.9" class="st5" width="67.8" height="6.1"/>
<rect x="271.2" y="276.8" class="st5" width="67.8" height="6.1"/>
<rect x="271.2" y="270.6" class="st3" width="67.8" height="6.1"/>
<rect x="271.2" y="264.5" class="st5" width="67.8" height="6.1"/>
<rect x="271.2" y="258.3" class="st34" width="67.8" height="6.1"/>
<rect x="271.2" y="252.2" class="st35" width="67.8" height="6.1"/>
<rect x="271.2" y="246" class="st9" width="67.8" height="6.1"/>
<rect x="271.2" y="239.9" class="st35" width="67.8" height="6.1"/>
<rect x="271.2" y="233.7" class="st1" width="67.8" height="6.1"/>
<rect x="271.2" y="227.6" class="st34" width="67.8" height="6.1"/>
<rect x="271.2" y="221.4" class="st15" width="67.8" height="6.1"/>
<rect x="271.2" y="215.3" class="st7" width="67.8" height="6.1"/>
<rect x="271.2" y="209.1" class="st8" width="67.8" height="6.1"/>
<rect x="271.2" y="203" class="st12" width="67.8" height="6.1"/>
<rect x="271.2" y="196.8" class="st6" width="67.8" height="6.1"/>
<rect x="271.2" y="190.7" class="st12" width="67.8" height="6.1"/>
<rect x="271.2" y="184.5" class="st8" width="67.8" height="6.1"/>
<rect x="271.2" y="178.4" class="st6" width="67.8" height="6.1"/>
<rect x="271.2" y="172.2" class="st15" width="67.8" height="6.1"/>
<rect x="271.2" y="166.1" class="st3" width="67.8" height="6.1"/>
<rect x="271.2" y="159.9" class="st6" width="67.8" height="6.1"/>
<rect x="271.2" y="153.8" class="st12" width="67.8" height="6.1"/>
<rect x="271.2" y="147.6" class="st12" width="67.8" height="6.1"/>
<rect x="271.2" y="141.5" class="st7" width="67.8" height="6.1"/>
<rect x="271.2" y="135.3" class="st8" width="67.8" height="6.1"/>
<rect x="271.2" y="129.2" class="st15" width="67.8" height="6.1"/>
<rect x="271.2" y="123" class="st8" width="67.8" height="6.1"/>
<rect x="271.2" y="116.9" class="st7" width="67.8" height="6.1"/>
<rect x="271.2" y="110.7" class="st11" width="67.8" height="6.1"/>
<rect x="271.2" y="104.6" class="st11" width="67.8" height="6.1"/>
<rect x="271.2" y="98.4" class="st10" width="67.8" height="6.1"/>
<rect x="271.2" y="92.3" class="st15" width="67.8" height="6.1"/>
<rect x="271.2" y="86.1" class="st14" width="67.8" height="6.1"/>
<rect x="271.2" y="80" class="st18" width="67.8" height="6.1"/>
<rect x="271.2" y="73.8" class="st24" width="67.8" height="6.1"/>
<rect x="271.2" y="67.7" class="st19" width="67.8" height="6.1"/>
<rect x="271.2" y="61.5" class="st19" width="67.8" height="6.1"/>
<rect x="271.2" y="55.4" class="st36" width="67.8" height="6.1"/>
<rect x="271.2" y="49.2" class="st24" width="67.8" height="6.1"/>
<rect x="271.2" y="43.1" class="st15" width="67.8" height="6.1"/>
<rect x="271.2" y="36.9" class="st33" width="67.8" height="6.1"/>
<rect x="271.2" y="30.8" class="st20" width="67.8" height="6.1"/>
<rect x="271.2" y="24.6" class="st16" width="67.8" height="6.1"/>
<rect x="271.2" y="18.5" class="st20" width="67.8" height="6.1"/>
<rect x="271.2" y="12.3" class="st29" width="67.8" height="6.1"/>
<rect x="271.2" y="6.2" class="st28" width="67.8" height="6.1"/>
<rect x="271.2" class="st37" width="67.8" height="6.2"/>
</svg>
