<?xml version="1.0" encoding="utf-8"?>
<!-- Generator: Adobe Illustrator 19.0.0, SVG Export Plug-In . SVG Version: 6.00 Build 0)  -->
<svg version="1.1" xmlns="http://www.w3.org/2000/svg" xmlns:xlink="http://www.w3.org/1999/xlink" x="0px" y="0px"
	 viewBox="-128 193.7 339 455.2" style="enable-background:new -128 193.7 339 455.2;" xml:space="preserve">
<style type="text/css">
	.st0{fill:#282828;}
	.st1{fill:#003648;}
	.st2{fill:#03475E;}
	.st3{fill:#022634;}
	.st4{fill:#082029;}
	.st5{fill:#002E3E;}
	.st6{fill:#071920;}
	.st7{fill:#0A1417;}
	.st8{fill:#070C0E;}
	.st9{fill:#010101;}
	.st10{fill:#013F53;}
	.st11{fill:#250D0D;}
	.st12{fill:#120A0B;}
	.st13{fill:#0A0606;}
	.st14{fill:#1F0E0E;}
	.st15{fill:#2B1010;}
	.st16{fill:#190D0D;}
	.st17{fill:#371313;}
	.st18{fill:#3E1313;}
	.st19{fill:#561413;}
	.st20{fill:#4D1515;}
	.st21{fill:#5E1413;}
	.st22{fill:#661415;}
	.st23{fill:#831A1A;}
	.st24{fill:#F4774E;}
	.st25{fill:#301212;}
	.st26{fill:#7B1818;}
	.st27{fill:#8B1B1B;}
	.st28{fill:#DF5A3C;}
	.st29{fill:#6C1615;}
	.st30{fill:#911C1D;}
	.st31{fill:#741716;}
	.st32{fill:#F47E53;}
	.st33{fill:#B32625;}
	.st34{fill:#461313;}
	.st35{fill:#035E7C;}
	.st36{fill:#054E69;}
	.st37{fill:#C93F30;}
	.st38{fill:#A81F23;}
	.st39{fill:url(#SVGID_1_);}
</style>
<g id="Layer_3">
	<rect x="-128" y="191.8" class="st0" width="339" height="458.9"/>
</g>
<g id="Layer_1">
	<rect x="-128" y="642.7" class="st1" width="67.8" height="6.1"/>
	<rect x="-128" y="636.6" class="st2" width="67.8" height="6.2"/>
	<rect x="-128" y="630.4" class="st3" width="67.8" height="6.2"/>
	<rect x="-128" y="624.3" class="st4" width="67.8" height="6.2"/>
	<rect x="-128" y="618.1" class="st1" width="67.8" height="6.2"/>
	<rect x="-128" y="612" class="st3" width="67.8" height="6.2"/>
	<rect x="-128" y="605.8" class="st5" width="67.8" height="6.2"/>
	<rect x="-128" y="599.7" class="st3" width="67.8" height="6.2"/>
	<rect x="-128" y="593.5" class="st3" width="67.8" height="6.2"/>
	<rect x="-128" y="587.3" class="st6" width="67.8" height="6.2"/>
	<rect x="-128" y="581.2" class="st5" width="67.8" height="6.2"/>
	<rect x="-128" y="575" class="st3" width="67.8" height="6.1"/>
	<rect x="-128" y="568.9" class="st3" width="67.8" height="6.1"/>
	<rect x="-128" y="562.7" class="st5" width="67.8" height="6.1"/>
	<rect x="-128" y="556.6" class="st1" width="67.8" height="6.1"/>
	<rect x="-128" y="550.4" class="st4" width="67.8" height="6.1"/>
	<rect x="-128" y="544.3" class="st6" width="67.8" height="6.1"/>
	<rect x="-128" y="538.1" class="st7" width="67.8" height="6.1"/>
	<rect x="-128" y="532" class="st6" width="67.8" height="6.1"/>
	<rect x="-128" y="525.8" class="st7" width="67.8" height="6.1"/>
	<rect x="-128" y="519.7" class="st4" width="67.8" height="6.1"/>
	<rect x="-128" y="513.5" class="st4" width="67.8" height="6.1"/>
	<rect x="-128" y="507.4" class="st4" width="67.8" height="6.1"/>
	<rect x="-128" y="501.2" class="st6" width="67.8" height="6.1"/>
	<rect x="-128" y="495.1" class="st8" width="67.8" height="6.1"/>
	<rect x="-128" y="488.9" class="st8" width="67.8" height="6.1"/>
	<rect x="-128" y="482.8" class="st9" width="67.8" height="6.1"/>
	<rect x="-128" y="476.6" class="st8" width="67.8" height="6.1"/>
	<rect x="-128" y="470.5" class="st8" width="67.8" height="6.1"/>
	<rect x="-128" y="464.3" class="st6" width="67.8" height="6.1"/>
	<rect x="-128" y="458.2" class="st8" width="67.8" height="6.1"/>
	<rect x="-128" y="452" class="st10" width="67.8" height="6.1"/>
	<rect x="-128" y="445.9" class="st10" width="67.8" height="6.1"/>
	<rect x="-128" y="439.7" class="st5" width="67.8" height="6.1"/>
	<rect x="-128" y="433.6" class="st3" width="67.8" height="6.1"/>
	<rect x="-128" y="427.4" class="st3" width="67.8" height="6.1"/>
	<rect x="-128" y="421.3" class="st1" width="67.8" height="6.1"/>
	<rect x="-128" y="415.1" class="st11" width="67.8" height="6.1"/>
	<rect x="-128" y="409" class="st6" width="67.8" height="6.1"/>
	<rect x="-128" y="402.8" class="st6" width="67.8" height="6.1"/>
	<rect x="-128" y="396.7" class="st6" width="67.8" height="6.1"/>
	<rect x="-128" y="390.5" class="st4" width="67.8" height="6.1"/>
	<rect x="-128" y="384.4" class="st6" width="67.8" height="6.1"/>
	<rect x="-128" y="378.2" class="st3" width="67.8" height="6.1"/>
	<rect x="-128" y="372.1" class="st6" width="67.8" height="6.1"/>
	<rect x="-128" y="365.9" class="st7" width="67.8" height="6.1"/>
	<rect x="-128" y="359.8" class="st6" width="67.8" height="6.1"/>
	<rect x="-128" y="353.6" class="st7" width="67.8" height="6.1"/>
	<rect x="-128" y="347.5" class="st9" width="67.8" height="6.1"/>
	<rect x="-128" y="341.3" class="st9" width="67.8" height="6.1"/>
	<rect x="-128" y="335.2" class="st12" width="67.8" height="6.1"/>
	<rect x="-128" y="329" class="st9" width="67.8" height="6.1"/>
	<rect x="-128" y="322.9" class="st9" width="67.8" height="6.1"/>
	<rect x="-128" y="316.7" class="st13" width="67.8" height="6.1"/>
	<rect x="-128" y="310.6" class="st12" width="67.8" height="6.1"/>
	<rect x="-128" y="304.4" class="st14" width="67.8" height="6.1"/>
	<rect x="-128" y="298.3" class="st8" width="67.8" height="6.1"/>
	<rect x="-128" y="292.1" class="st12" width="67.8" height="6.1"/>
	<rect x="-128" y="286" class="st15" width="67.8" height="6.1"/>
	<rect x="-128" y="279.8" class="st11" width="67.8" height="6.1"/>
	<rect x="-128" y="273.7" class="st16" width="67.8" height="6.1"/>
	<rect x="-128" y="267.5" class="st12" width="67.8" height="6.1"/>
	<rect x="-128" y="261.4" class="st16" width="67.8" height="6.1"/>
	<rect x="-128" y="255.2" class="st14" width="67.8" height="6.1"/>
	<rect x="-128" y="249.1" class="st17" width="67.8" height="6.1"/>
	<rect x="-128" y="242.9" class="st18" width="67.8" height="6.1"/>
	<rect x="-128" y="236.8" class="st19" width="67.8" height="6.1"/>
	<rect x="-128" y="230.6" class="st20" width="67.8" height="6.1"/>
	<rect x="-128" y="224.5" class="st21" width="67.8" height="6.1"/>
	<rect x="-128" y="218.3" class="st22" width="67.8" height="6.1"/>
	<rect x="-128" y="212.2" class="st21" width="67.8" height="6.1"/>
	<rect x="-128" y="206" class="st21" width="67.8" height="6.1"/>
	<rect x="-128" y="199.9" class="st23" width="67.8" height="6.1"/>
	<rect x="-128" y="193.7" class="st24" width="67.8" height="6.2"/>
	<rect x="-60.2" y="642.7" class="st1" width="67.8" height="6.1"/>
	<rect x="-60.2" y="636.6" class="st5" width="67.8" height="6.2"/>
	<rect x="-60.2" y="630.4" class="st5" width="67.8" height="6.2"/>
	<rect x="-60.2" y="624.3" class="st5" width="67.8" height="6.2"/>
	<rect x="-60.2" y="618.1" class="st3" width="67.8" height="6.2"/>
	<rect x="-60.2" y="612" class="st3" width="67.8" height="6.2"/>
	<rect x="-60.2" y="605.8" class="st10" width="67.8" height="6.2"/>
	<rect x="-60.2" y="599.7" class="st4" width="67.8" height="6.2"/>
	<rect x="-60.2" y="593.5" class="st3" width="67.8" height="6.2"/>
	<rect x="-60.2" y="587.3" class="st4" width="67.8" height="6.2"/>
	<rect x="-60.2" y="581.2" class="st5" width="67.8" height="6.2"/>
	<rect x="-60.2" y="575" class="st4" width="67.8" height="6.1"/>
	<rect x="-60.2" y="568.9" class="st6" width="67.8" height="6.1"/>
	<rect x="-60.2" y="562.7" class="st6" width="67.8" height="6.1"/>
	<rect x="-60.2" y="556.6" class="st3" width="67.8" height="6.1"/>
	<rect x="-60.2" y="550.4" class="st3" width="67.8" height="6.1"/>
	<rect x="-60.2" y="544.3" class="st5" width="67.8" height="6.1"/>
	<rect x="-60.2" y="538.1" class="st3" width="67.8" height="6.1"/>
	<rect x="-60.2" y="532" class="st5" width="67.8" height="6.1"/>
	<rect x="-60.2" y="525.8" class="st4" width="67.8" height="6.1"/>
	<rect x="-60.2" y="519.7" class="st4" width="67.8" height="6.1"/>
	<rect x="-60.2" y="513.5" class="st6" width="67.8" height="6.1"/>
	<rect x="-60.2" y="507.4" class="st4" width="67.8" height="6.1"/>
	<rect x="-60.2" y="501.2" class="st6" width="67.8" height="6.1"/>
	<rect x="-60.2" y="495.1" class="st4" width="67.8" height="6.1"/>
	<rect x="-60.2" y="488.9" class="st4" width="67.8" height="6.1"/>
	<rect x="-60.2" y="482.8" class="st6" width="67.8" height="6.1"/>
	<rect x="-60.2" y="476.6" class="st9" width="67.8" height="6.1"/>
	<rect x="-60.2" y="470.5" class="st9" width="67.8" height="6.1"/>
	<rect x="-60.2" y="464.3" class="st7" width="67.8" height="6.1"/>
	<rect x="-60.2" y="458.2" class="st3" width="67.8" height="6.1"/>
	<rect x="-60.2" y="452" class="st10" width="67.8" height="6.1"/>
	<rect x="-60.2" y="445.9" class="st10" width="67.8" height="6.1"/>
	<rect x="-60.2" y="439.7" class="st1" width="67.8" height="6.1"/>
	<rect x="-60.2" y="433.6" class="st5" width="67.8" height="6.1"/>
	<rect x="-60.2" y="427.4" class="st5" width="67.8" height="6.1"/>
	<rect x="-60.2" y="421.3" class="st3" width="67.8" height="6.1"/>
	<rect x="-60.2" y="415.1" class="st9" width="67.8" height="6.1"/>
	<rect x="-60.2" y="409" class="st6" width="67.8" height="6.1"/>
	<rect x="-60.2" y="402.8" class="st7" width="67.8" height="6.1"/>
	<rect x="-60.2" y="396.7" class="st4" width="67.8" height="6.1"/>
	<rect x="-60.2" y="390.5" class="st7" width="67.8" height="6.1"/>
	<rect x="-60.2" y="384.4" class="st8" width="67.8" height="6.1"/>
	<rect x="-60.2" y="378.2" class="st8" width="67.8" height="6.1"/>
	<rect x="-60.2" y="372.1" class="st8" width="67.8" height="6.1"/>
	<rect x="-60.2" y="365.9" class="st4" width="67.8" height="6.1"/>
	<rect x="-60.2" y="359.8" class="st4" width="67.8" height="6.1"/>
	<rect x="-60.2" y="353.6" class="st16" width="67.8" height="6.1"/>
	<rect x="-60.2" y="347.5" class="st8" width="67.8" height="6.1"/>
	<rect x="-60.2" y="341.3" class="st13" width="67.8" height="6.1"/>
	<rect x="-60.2" y="335.2" class="st12" width="67.8" height="6.1"/>
	<rect x="-60.2" y="329" class="st13" width="67.8" height="6.1"/>
	<rect x="-60.2" y="322.9" class="st13" width="67.8" height="6.1"/>
	<rect x="-60.2" y="316.7" class="st4" width="67.8" height="6.1"/>
	<rect x="-60.2" y="310.6" class="st4" width="67.8" height="6.1"/>
	<rect x="-60.2" y="304.4" class="st7" width="67.8" height="6.1"/>
	<rect x="-60.2" y="298.3" class="st3" width="67.8" height="6.1"/>
	<rect x="-60.2" y="292.1" class="st15" width="67.8" height="6.1"/>
	<rect x="-60.2" y="286" class="st15" width="67.8" height="6.1"/>
	<rect x="-60.2" y="279.8" class="st15" width="67.8" height="6.1"/>
	<rect x="-60.2" y="273.7" class="st9" width="67.8" height="6.1"/>
	<rect x="-60.2" y="267.5" class="st12" width="67.8" height="6.1"/>
	<rect x="-60.2" y="261.4" class="st25" width="67.8" height="6.1"/>
	<rect x="-60.2" y="255.2" class="st25" width="67.8" height="6.1"/>
	<rect x="-60.2" y="249.1" class="st19" width="67.8" height="6.1"/>
	<rect x="-60.2" y="242.9" class="st20" width="67.8" height="6.1"/>
	<rect x="-60.2" y="236.8" class="st23" width="67.8" height="6.1"/>
	<rect x="-60.2" y="230.6" class="st19" width="67.8" height="6.1"/>
	<rect x="-60.2" y="224.5" class="st22" width="67.8" height="6.1"/>
	<rect x="-60.2" y="218.3" class="st21" width="67.8" height="6.1"/>
	<rect x="-60.2" y="212.2" class="st26" width="67.8" height="6.1"/>
	<rect x="-60.2" y="206" class="st27" width="67.8" height="6.1"/>
	<rect x="-60.2" y="199.9" class="st26" width="67.8" height="6.1"/>
	<rect x="-60.2" y="193.7" class="st28" width="67.8" height="6.2"/>
	<rect x="7.6" y="642.7" class="st5" width="67.8" height="6.1"/>
	<rect x="7.6" y="636.6" class="st4" width="67.8" height="6.2"/>
	<rect x="7.6" y="630.4" class="st1" width="67.8" height="6.2"/>
	<rect x="7.6" y="624.3" class="st1" width="67.8" height="6.2"/>
	<rect x="7.6" y="618.1" class="st7" width="67.8" height="6.2"/>
	<rect x="7.6" y="612" class="st7" width="67.8" height="6.2"/>
	<rect x="7.6" y="605.8" class="st6" width="67.8" height="6.2"/>
	<rect x="7.6" y="599.7" class="st4" width="67.8" height="6.2"/>
	<rect x="7.6" y="593.5" class="st6" width="67.8" height="6.2"/>
	<rect x="7.6" y="587.3" class="st5" width="67.8" height="6.2"/>
	<rect x="7.6" y="581.2" class="st6" width="67.8" height="6.2"/>
	<rect x="7.6" y="575" class="st8" width="67.8" height="6.1"/>
	<rect x="7.6" y="568.9" class="st4" width="67.8" height="6.1"/>
	<rect x="7.6" y="562.7" class="st6" width="67.8" height="6.1"/>
	<rect x="7.6" y="556.6" class="st4" width="67.8" height="6.1"/>
	<rect x="7.6" y="550.4" class="st7" width="67.8" height="6.1"/>
	<rect x="7.6" y="544.3" class="st4" width="67.8" height="6.1"/>
	<rect x="7.6" y="538.1" class="st6" width="67.8" height="6.1"/>
	<rect x="7.6" y="532" class="st3" width="67.8" height="6.1"/>
	<rect x="7.6" y="525.8" class="st5" width="67.8" height="6.1"/>
	<rect x="7.6" y="519.7" class="st4" width="67.8" height="6.1"/>
	<rect x="7.6" y="513.5" class="st4" width="67.8" height="6.1"/>
	<rect x="7.6" y="507.4" class="st5" width="67.8" height="6.1"/>
	<rect x="7.6" y="501.2" class="st5" width="67.8" height="6.1"/>
	<rect x="7.6" y="495.1" class="st4" width="67.8" height="6.1"/>
	<rect x="7.6" y="488.9" class="st3" width="67.8" height="6.1"/>
	<rect x="7.6" y="482.8" class="st4" width="67.8" height="6.1"/>
	<rect x="7.6" y="476.6" class="st3" width="67.8" height="6.1"/>
	<rect x="7.6" y="470.5" class="st7" width="67.8" height="6.1"/>
	<rect x="7.6" y="464.3" class="st5" width="67.8" height="6.1"/>
	<rect x="7.6" y="458.2" class="st6" width="67.8" height="6.1"/>
	<rect x="7.6" y="452" class="st10" width="67.8" height="6.1"/>
	<rect x="7.6" y="445.9" class="st1" width="67.8" height="6.1"/>
	<rect x="7.6" y="439.7" class="st2" width="67.8" height="6.1"/>
	<rect x="7.6" y="433.6" class="st3" width="67.8" height="6.1"/>
	<rect x="7.6" y="427.4" class="st4" width="67.8" height="6.1"/>
	<rect x="7.6" y="421.3" class="st5" width="67.8" height="6.1"/>
	<rect x="7.6" y="415.1" class="st16" width="67.8" height="6.1"/>
	<rect x="7.6" y="409" class="st9" width="67.8" height="6.1"/>
	<rect x="7.6" y="402.8" class="st8" width="67.8" height="6.1"/>
	<rect x="7.6" y="396.7" class="st7" width="67.8" height="6.1"/>
	<rect x="7.6" y="390.5" class="st8" width="67.8" height="6.1"/>
	<rect x="7.6" y="384.4" class="st8" width="67.8" height="6.1"/>
	<rect x="7.6" y="378.2" class="st6" width="67.8" height="6.1"/>
	<rect x="7.6" y="372.1" class="st12" width="67.8" height="6.1"/>
	<rect x="7.6" y="365.9" class="st16" width="67.8" height="6.1"/>
	<rect x="7.6" y="359.8" class="st14" width="67.8" height="6.1"/>
	<rect x="7.6" y="353.6" class="st16" width="67.8" height="6.1"/>
	<rect x="7.6" y="347.5" class="st8" width="67.8" height="6.1"/>
	<rect x="7.6" y="341.3" class="st6" width="67.8" height="6.1"/>
	<rect x="7.6" y="335.2" class="st12" width="67.8" height="6.1"/>
	<rect x="7.6" y="329" class="st12" width="67.8" height="6.1"/>
	<rect x="7.6" y="322.9" class="st13" width="67.8" height="6.1"/>
	<rect x="7.6" y="316.7" class="st6" width="67.8" height="6.1"/>
	<rect x="7.6" y="310.6" class="st8" width="67.8" height="6.1"/>
	<rect x="7.6" y="304.4" class="st3" width="67.8" height="6.1"/>
	<rect x="7.6" y="298.3" class="st5" width="67.8" height="6.1"/>
	<rect x="7.6" y="292.1" class="st15" width="67.8" height="6.1"/>
	<rect x="7.6" y="286" class="st16" width="67.8" height="6.1"/>
	<rect x="7.6" y="279.8" class="st16" width="67.8" height="6.1"/>
	<rect x="7.6" y="273.7" class="st25" width="67.8" height="6.1"/>
	<rect x="7.6" y="267.5" class="st12" width="67.8" height="6.1"/>
	<rect x="7.6" y="261.4" class="st11" width="67.8" height="6.1"/>
	<rect x="7.6" y="255.2" class="st14" width="67.8" height="6.1"/>
	<rect x="7.6" y="249.1" class="st11" width="67.8" height="6.1"/>
	<rect x="7.6" y="242.9" class="st12" width="67.8" height="6.1"/>
	<rect x="7.6" y="236.8" class="st15" width="67.8" height="6.1"/>
	<rect x="7.6" y="230.6" class="st18" width="67.8" height="6.1"/>
	<rect x="7.6" y="224.5" class="st17" width="67.8" height="6.1"/>
	<rect x="7.6" y="218.3" class="st29" width="67.8" height="6.1"/>
	<rect x="7.6" y="212.2" class="st30" width="67.8" height="6.1"/>
	<rect x="7.6" y="206" class="st20" width="67.8" height="6.1"/>
	<rect x="7.6" y="199.9" class="st31" width="67.8" height="6.1"/>
	<rect x="7.6" y="193.7" class="st32" width="67.8" height="6.2"/>
	<rect x="75.4" y="642.7" class="st2" width="67.8" height="6.1"/>
	<rect x="75.4" y="636.6" class="st1" width="67.8" height="6.2"/>
	<rect x="75.4" y="630.4" class="st1" width="67.8" height="6.2"/>
	<rect x="75.4" y="624.3" class="st3" width="67.8" height="6.2"/>
	<rect x="75.4" y="618.1" class="st3" width="67.8" height="6.2"/>
	<rect x="75.4" y="612" class="st5" width="67.8" height="6.2"/>
	<rect x="75.4" y="605.8" class="st5" width="67.8" height="6.2"/>
	<rect x="75.4" y="599.7" class="st5" width="67.8" height="6.2"/>
	<rect x="75.4" y="593.5" class="st4" width="67.8" height="6.2"/>
	<rect x="75.4" y="587.3" class="st5" width="67.8" height="6.2"/>
	<rect x="75.4" y="581.2" class="st1" width="67.8" height="6.2"/>
	<rect x="75.4" y="575" class="st5" width="67.8" height="6.1"/>
	<rect x="75.4" y="568.9" class="st6" width="67.8" height="6.1"/>
	<rect x="75.4" y="562.7" class="st6" width="67.8" height="6.1"/>
	<rect x="75.4" y="556.6" class="st7" width="67.8" height="6.1"/>
	<rect x="75.4" y="550.4" class="st6" width="67.8" height="6.1"/>
	<rect x="75.4" y="544.3" class="st5" width="67.8" height="6.1"/>
	<rect x="75.4" y="538.1" class="st3" width="67.8" height="6.1"/>
	<rect x="75.4" y="532" class="st3" width="67.8" height="6.1"/>
	<rect x="75.4" y="525.8" class="st5" width="67.8" height="6.1"/>
	<rect x="75.4" y="519.7" class="st5" width="67.8" height="6.1"/>
	<rect x="75.4" y="513.5" class="st5" width="67.8" height="6.1"/>
	<rect x="75.4" y="507.4" class="st3" width="67.8" height="6.1"/>
	<rect x="75.4" y="501.2" class="st6" width="67.8" height="6.1"/>
	<rect x="75.4" y="495.1" class="st4" width="67.8" height="6.1"/>
	<rect x="75.4" y="488.9" class="st6" width="67.8" height="6.1"/>
	<rect x="75.4" y="482.8" class="st3" width="67.8" height="6.1"/>
	<rect x="75.4" y="476.6" class="st7" width="67.8" height="6.1"/>
	<rect x="75.4" y="470.5" class="st6" width="67.8" height="6.1"/>
	<rect x="75.4" y="464.3" class="st9" width="67.8" height="6.1"/>
	<rect x="75.4" y="458.2" class="st9" width="67.8" height="6.1"/>
	<rect x="75.4" y="452" class="st10" width="67.8" height="6.1"/>
	<rect x="75.4" y="445.9" class="st10" width="67.8" height="6.1"/>
	<rect x="75.4" y="439.7" class="st1" width="67.8" height="6.1"/>
	<rect x="75.4" y="433.6" class="st1" width="67.8" height="6.1"/>
	<rect x="75.4" y="427.4" class="st3" width="67.8" height="6.1"/>
	<rect x="75.4" y="421.3" class="st5" width="67.8" height="6.1"/>
	<rect x="75.4" y="415.1" class="st33" width="67.8" height="6.1"/>
	<rect x="75.4" y="409" class="st8" width="67.8" height="6.1"/>
	<rect x="75.4" y="402.8" class="st7" width="67.8" height="6.1"/>
	<rect x="75.4" y="396.7" class="st7" width="67.8" height="6.1"/>
	<rect x="75.4" y="390.5" class="st7" width="67.8" height="6.1"/>
	<rect x="75.4" y="384.4" class="st4" width="67.8" height="6.1"/>
	<rect x="75.4" y="378.2" class="st8" width="67.8" height="6.1"/>
	<rect x="75.4" y="372.1" class="st9" width="67.8" height="6.1"/>
	<rect x="75.4" y="365.9" class="st8" width="67.8" height="6.1"/>
	<rect x="75.4" y="359.8" class="st3" width="67.8" height="6.1"/>
	<rect x="75.4" y="353.6" class="st15" width="67.8" height="6.1"/>
	<rect x="75.4" y="347.5" class="st12" width="67.8" height="6.1"/>
	<rect x="75.4" y="341.3" class="st9" width="67.8" height="6.1"/>
	<rect x="75.4" y="335.2" class="st13" width="67.8" height="6.1"/>
	<rect x="75.4" y="329" class="st16" width="67.8" height="6.1"/>
	<rect x="75.4" y="322.9" class="st16" width="67.8" height="6.1"/>
	<rect x="75.4" y="316.7" class="st7" width="67.8" height="6.1"/>
	<rect x="75.4" y="310.6" class="st7" width="67.8" height="6.1"/>
	<rect x="75.4" y="304.4" class="st8" width="67.8" height="6.1"/>
	<rect x="75.4" y="298.3" class="st4" width="67.8" height="6.1"/>
	<rect x="75.4" y="292.1" class="st8" width="67.8" height="6.1"/>
	<rect x="75.4" y="286" class="st16" width="67.8" height="6.1"/>
	<rect x="75.4" y="279.8" class="st12" width="67.8" height="6.1"/>
	<rect x="75.4" y="273.7" class="st14" width="67.8" height="6.1"/>
	<rect x="75.4" y="267.5" class="st25" width="67.8" height="6.1"/>
	<rect x="75.4" y="261.4" class="st14" width="67.8" height="6.1"/>
	<rect x="75.4" y="255.2" class="st17" width="67.8" height="6.1"/>
	<rect x="75.4" y="249.1" class="st20" width="67.8" height="6.1"/>
	<rect x="75.4" y="242.9" class="st34" width="67.8" height="6.1"/>
	<rect x="75.4" y="236.8" class="st20" width="67.8" height="6.1"/>
	<rect x="75.4" y="230.6" class="st19" width="67.8" height="6.1"/>
	<rect x="75.4" y="224.5" class="st22" width="67.8" height="6.1"/>
	<rect x="75.4" y="218.3" class="st17" width="67.8" height="6.1"/>
	<rect x="75.4" y="212.2" class="st18" width="67.8" height="6.1"/>
	<rect x="75.4" y="206" class="st21" width="67.8" height="6.1"/>
	<rect x="75.4" y="199.9" class="st26" width="67.8" height="6.1"/>
	<rect x="75.4" y="193.7" class="st28" width="67.8" height="6.2"/>
	<rect x="143.2" y="642.7" class="st3" width="67.8" height="6.1"/>
	<rect x="143.2" y="636.6" class="st5" width="67.8" height="6.2"/>
	<rect x="143.2" y="630.4" class="st5" width="67.8" height="6.2"/>
	<rect x="143.2" y="624.3" class="st3" width="67.8" height="6.2"/>
	<rect x="143.2" y="618.1" class="st5" width="67.8" height="6.2"/>
	<rect x="143.2" y="612" class="st5" width="67.8" height="6.2"/>
	<rect x="143.2" y="605.8" class="st5" width="67.8" height="6.2"/>
	<rect x="143.2" y="599.7" class="st4" width="67.8" height="6.2"/>
	<rect x="143.2" y="593.5" class="st4" width="67.8" height="6.2"/>
	<rect x="143.2" y="587.3" class="st6" width="67.8" height="6.2"/>
	<rect x="143.2" y="581.2" class="st8" width="67.8" height="6.2"/>
	<rect x="143.2" y="575" class="st6" width="67.8" height="6.1"/>
	<rect x="143.2" y="568.9" class="st6" width="67.8" height="6.1"/>
	<rect x="143.2" y="562.7" class="st6" width="67.8" height="6.1"/>
	<rect x="143.2" y="556.6" class="st7" width="67.8" height="6.1"/>
	<rect x="143.2" y="550.4" class="st9" width="67.8" height="6.1"/>
	<rect x="143.2" y="544.3" class="st1" width="67.8" height="6.1"/>
	<rect x="143.2" y="538.1" class="st1" width="67.8" height="6.1"/>
	<rect x="143.2" y="532" class="st10" width="67.8" height="6.1"/>
	<rect x="143.2" y="525.8" class="st2" width="67.8" height="6.1"/>
	<rect x="143.2" y="519.7" class="st1" width="67.8" height="6.1"/>
	<rect x="143.2" y="513.5" class="st1" width="67.8" height="6.1"/>
	<rect x="143.2" y="507.4" class="st5" width="67.8" height="6.1"/>
	<rect x="143.2" y="501.2" class="st1" width="67.8" height="6.1"/>
	<rect x="143.2" y="495.1" class="st10" width="67.8" height="6.1"/>
	<rect x="143.2" y="488.9" class="st6" width="67.8" height="6.1"/>
	<rect x="143.2" y="482.8" class="st7" width="67.8" height="6.1"/>
	<rect x="143.2" y="476.6" class="st6" width="67.8" height="6.1"/>
	<rect x="143.2" y="470.5" class="st6" width="67.8" height="6.1"/>
	<rect x="143.2" y="464.3" class="st4" width="67.8" height="6.1"/>
	<rect x="143.2" y="458.2" class="st6" width="67.8" height="6.1"/>
	<rect x="143.2" y="452" class="st35" width="67.8" height="6.1"/>
	<rect x="143.2" y="445.9" class="st36" width="67.8" height="6.1"/>
	<rect x="143.2" y="439.7" class="st10" width="67.8" height="6.1"/>
	<rect x="143.2" y="433.6" class="st36" width="67.8" height="6.1"/>
	<rect x="143.2" y="427.4" class="st2" width="67.8" height="6.1"/>
	<rect x="143.2" y="421.3" class="st35" width="67.8" height="6.1"/>
	<rect x="143.2" y="415.1" class="st16" width="67.8" height="6.1"/>
	<rect x="143.2" y="409" class="st8" width="67.8" height="6.1"/>
	<rect x="143.2" y="402.8" class="st9" width="67.8" height="6.1"/>
	<rect x="143.2" y="396.7" class="st13" width="67.8" height="6.1"/>
	<rect x="143.2" y="390.5" class="st7" width="67.8" height="6.1"/>
	<rect x="143.2" y="384.4" class="st13" width="67.8" height="6.1"/>
	<rect x="143.2" y="378.2" class="st9" width="67.8" height="6.1"/>
	<rect x="143.2" y="372.1" class="st7" width="67.8" height="6.1"/>
	<rect x="143.2" y="365.9" class="st16" width="67.8" height="6.1"/>
	<rect x="143.2" y="359.8" class="st4" width="67.8" height="6.1"/>
	<rect x="143.2" y="353.6" class="st7" width="67.8" height="6.1"/>
	<rect x="143.2" y="347.5" class="st13" width="67.8" height="6.1"/>
	<rect x="143.2" y="341.3" class="st13" width="67.8" height="6.1"/>
	<rect x="143.2" y="335.2" class="st8" width="67.8" height="6.1"/>
	<rect x="143.2" y="329" class="st9" width="67.8" height="6.1"/>
	<rect x="143.2" y="322.9" class="st16" width="67.8" height="6.1"/>
	<rect x="143.2" y="316.7" class="st9" width="67.8" height="6.1"/>
	<rect x="143.2" y="310.6" class="st8" width="67.8" height="6.1"/>
	<rect x="143.2" y="304.4" class="st12" width="67.8" height="6.1"/>
	<rect x="143.2" y="298.3" class="st12" width="67.8" height="6.1"/>
	<rect x="143.2" y="292.1" class="st11" width="67.8" height="6.1"/>
	<rect x="143.2" y="286" class="st16" width="67.8" height="6.1"/>
	<rect x="143.2" y="279.8" class="st15" width="67.8" height="6.1"/>
	<rect x="143.2" y="273.7" class="st19" width="67.8" height="6.1"/>
	<rect x="143.2" y="267.5" class="st25" width="67.8" height="6.1"/>
	<rect x="143.2" y="261.4" class="st20" width="67.8" height="6.1"/>
	<rect x="143.2" y="255.2" class="st20" width="67.8" height="6.1"/>
	<rect x="143.2" y="249.1" class="st37" width="67.8" height="6.1"/>
	<rect x="143.2" y="242.9" class="st25" width="67.8" height="6.1"/>
	<rect x="143.2" y="236.8" class="st16" width="67.8" height="6.1"/>
	<rect x="143.2" y="230.6" class="st34" width="67.8" height="6.1"/>
	<rect x="143.2" y="224.5" class="st21" width="67.8" height="6.1"/>
	<rect x="143.2" y="218.3" class="st17" width="67.8" height="6.1"/>
	<rect x="143.2" y="212.2" class="st21" width="67.8" height="6.1"/>
	<rect x="143.2" y="206" class="st30" width="67.8" height="6.1"/>
	<rect x="143.2" y="199.9" class="st29" width="67.8" height="6.1"/>
	<rect x="143.2" y="193.7" class="st38" width="67.8" height="6.2"/>
</g>
<g id="Layer_2">
	<linearGradient id="SVGID_1_" gradientUnits="userSpaceOnUse" x1="41.5" y1="194.5874" x2="41.5" y2="653.4774">
		<stop  offset="0" style="stop-color:#FFFFFF;stop-opacity:0"/>
		<stop  offset="0.1667" style="stop-color:#FFFFFF;stop-opacity:0"/>
		<stop  offset="0.7741" style="stop-color:#FFFFFF"/>
		<stop  offset="1" style="stop-color:#FFFFFF"/>
	</linearGradient>
	<rect x="-128" y="193.7" class="st39" width="339" height="458.9"/>
</g>
</svg>
